<svg width="319" height="44" viewBox="0 0 319 44" fill="none" xmlns="http://www.w3.org/2000/svg">
<path d="M12.3816 26.253C14.164 24.7051 15.6983 22.7937 16.9845 20.5186C18.271 18.2168 18.929 16.0394 18.9585 13.9863C18.9881 11.9331 18.6121 10.2609 17.8305 8.96954C17.0757 7.67856 16.165 7.0254 15.0984 7.01007C14.0319 6.99474 12.6868 7.80215 11.0632 9.43232C9.43959 11.0625 7.9685 13.2149 6.64992 15.8896C5.33173 18.5376 4.655 21.0881 4.61974 23.5412C4.59866 25.0077 4.90138 26.2122 5.5279 27.1546C6.1548 28.0704 6.89487 28.5344 7.74812 28.5466C9.08131 28.5658 10.6258 27.8013 12.3816 26.253ZM7.46272 31.7029C5.70291 31.6776 4.16886 30.7888 2.86057 29.0365C1.57895 27.2845 0.950984 25.5153 0.976663 23.7288C1.01154 21.3024 1.48695 18.8423 2.40289 16.3486C3.34549 13.8552 4.4968 11.6848 5.85682 9.83753C7.24351 7.99061 8.75854 6.49223 10.4019 5.34239C12.0456 4.1659 13.5608 3.58761 14.9473 3.60754C17.1871 3.63974 19.0388 4.69313 20.5025 6.76771C21.9665 8.81563 22.6801 11.1195 22.6433 13.6792C22.6065 16.2389 21.8612 18.9218 20.4074 21.7279C18.954 24.5073 17.0264 26.8798 14.6245 28.8455C12.2497 30.7849 9.86248 31.7374 7.46272 31.7029ZM29.9573 6.58359C29.965 6.05031 30.1856 5.54676 30.6191 5.07294C31.0526 4.59912 31.4827 4.36528 31.9093 4.37141C32.3626 4.37793 32.888 4.93221 33.4856 6.03424C34.0835 7.10961 34.3773 8.00726 34.367 8.72719C34.3631 8.99383 34.2397 9.23208 33.9967 9.44194C33.7536 9.6518 33.4988 9.75482 33.2321 9.75098C32.5922 9.74178 31.8778 9.34481 31.089 8.56006C30.3269 7.77569 29.9497 7.11687 29.9573 6.58359ZM29.6757 12.2601C30.1823 12.2674 30.6579 12.5809 31.1023 13.2007C31.5468 13.8205 31.7648 14.4237 31.7564 15.0103C31.748 15.5969 31.336 17.3512 30.5206 20.2731C29.7056 23.1684 28.6854 26.4207 27.4601 30.0301C26.9876 31.3568 26.4048 32.0152 25.7115 32.0052C25.3382 31.9998 25.0204 31.8486 24.7579 31.5514C24.4959 31.2276 24.3676 30.8791 24.3729 30.5058C24.3787 30.1058 24.4808 29.4939 24.6793 28.67C24.9049 27.8198 25.2143 26.7042 25.6075 25.323C26.0278 23.9156 26.3509 22.7734 26.5769 21.8966C26.8295 21.0201 27.0837 20.037 27.3394 18.9472C27.5954 17.8308 27.7949 16.9402 27.9378 16.2756C28.1078 15.5846 28.2911 14.8938 28.4877 14.2033C28.8797 12.9021 29.2758 12.2544 29.6757 12.2601ZM39.7271 31.8066C39.7029 33.4864 38.9577 35.2359 37.4914 37.055C36.0247 38.9008 34.7714 39.8162 33.7315 39.8013C33.1983 39.7936 32.9343 39.6031 32.9397 39.2298C32.9439 38.9365 33.2308 38.4606 33.8003 37.802C35.5089 35.8264 36.3727 34.172 36.3919 32.8388C36.398 32.4122 36.2297 32.063 35.8869 31.7914C35.5711 31.4935 35.2417 31.2221 34.8985 30.9771C34.5553 30.7322 34.3862 30.4364 34.3912 30.0897C34.3966 29.7164 34.6297 29.2664 35.0907 28.7397C35.552 28.1862 36.036 27.9132 36.5426 27.9204C37.3958 27.9327 38.1367 28.3434 38.7651 29.1525C39.4206 29.9353 39.7412 30.82 39.7271 31.8066ZM75.3031 19.5567C75.2827 20.9699 74.4928 22.1186 72.9333 23.003C71.4008 23.861 69.6613 24.2761 67.7148 24.2481C65.795 24.2205 64.0516 23.9821 62.4846 23.5328C62.0944 24.7007 61.8926 25.7512 61.8792 26.6845C61.8662 27.591 62.136 28.3017 62.6887 28.8163C63.268 29.3314 64.2109 29.5983 65.5174 29.6171C66.8506 29.6362 68.2138 29.4291 69.6068 28.9958C71.0269 28.5361 71.8036 28.3073 71.9369 28.3092C72.6302 28.3192 72.973 28.5908 72.9653 29.1241C72.955 29.844 72.1304 30.6189 70.4916 31.4487C68.8533 32.252 67.2608 32.6424 65.7143 32.6202C63.6345 32.5903 61.9502 31.9527 60.6613 30.7074C59.3728 29.4354 58.7421 27.8528 58.7693 25.9597C58.7965 24.0666 59.3315 22.1007 60.3742 20.0622C61.4174 17.9969 62.749 16.2692 64.3692 14.879C65.9893 13.4888 67.586 12.8051 69.1591 12.8277C70.7323 12.8503 72.1481 13.6174 73.4065 15.129C74.6916 16.6409 75.3238 18.1168 75.3031 19.5567ZM69.3137 15.9902C68.3271 15.976 67.2931 16.4812 66.2116 17.5058C65.1305 18.5037 64.2057 19.7572 63.4373 21.2663C64.5004 21.5216 65.7118 21.659 67.0717 21.6786C68.4316 21.6981 69.6212 21.5019 70.6405 21.0898C71.6603 20.6511 72.1753 20.0718 72.1857 19.3518C72.196 18.6319 71.8733 17.8939 71.2174 17.1377C70.5882 16.3819 69.9536 15.9994 69.3137 15.9902ZM91.5885 14.2702C91.7013 13.8451 91.8122 13.5533 91.9211 13.3949C92.0301 13.2364 92.2579 13.1597 92.6045 13.1647C92.9778 13.17 93.4128 13.523 93.9094 14.2235C94.4328 14.9245 94.6898 15.5949 94.6806 16.2348C94.6756 16.5815 94.0595 18.6262 92.8323 22.3689C91.605 26.1117 90.6555 29.085 89.9838 31.2889C89.6477 32.4042 89.1864 32.9576 88.5998 32.9492C88.2531 32.9442 87.9619 32.7933 87.7262 32.4966C87.4904 32.1998 87.3781 31.6648 87.3892 30.8916C87.4003 30.1183 87.7271 28.7229 88.3695 26.7052C87.2235 28.5023 85.9889 29.978 84.6655 31.1324C83.3421 32.2869 82.1338 32.8562 81.0405 32.8405C79.974 32.8252 78.968 32.304 78.0227 31.277C77.0774 30.2499 76.6124 29.2032 76.6277 28.1366C76.6641 25.6035 77.4428 22.4544 78.9637 18.6892C80.5117 14.8977 81.779 13.0091 82.7655 13.0233C83.2455 13.0302 83.6555 13.2627 83.9956 13.721C84.3628 14.153 84.5424 14.649 84.5343 15.2089C84.5309 15.4489 84.1584 16.3103 83.4171 17.7931C82.676 19.2493 81.9312 20.9721 81.1825 22.9615C80.4343 24.9243 80.0494 26.6523 80.0279 28.1455C80.0218 28.5721 80.1499 28.934 80.4123 29.2311C80.6752 29.5016 80.9932 29.6395 81.3665 29.6449C82.3797 29.6594 83.5924 28.7834 85.0046 27.0169C86.4435 25.2507 87.7533 23.1893 88.9339 20.8327C90.1146 18.4761 90.9995 16.2886 91.5885 14.2702ZM124.194 13.6188C125.1 13.6318 125.946 14.1507 126.732 15.1754C127.517 16.1735 127.905 17.0458 127.894 17.7924C127.888 18.2457 127.671 18.4692 127.244 18.4631C126.951 18.4589 126.501 18.2257 125.894 17.7636C125.288 17.2749 124.665 17.0259 124.025 17.0167C123.385 17.0075 122.366 17.3662 120.969 18.0929C119.599 18.8199 118.907 19.5967 118.895 20.4233C118.887 21.0366 120.098 22.1074 122.53 23.6359C123.454 24.2359 124.283 25.0079 125.017 25.9519C125.777 26.8695 126.149 27.8617 126.134 28.9282C126.119 29.9681 125.371 30.9841 123.89 31.9763C122.436 32.9422 120.736 33.4111 118.789 33.3831C116.869 33.3555 115.17 32.8644 113.69 31.9097C112.237 30.9554 111.516 30.0649 111.528 29.2383C111.533 28.8917 111.617 28.6262 111.779 28.4419C111.969 28.2312 112.197 28.1278 112.464 28.1317C112.731 28.1355 113.101 28.3142 113.576 28.6677C115.001 29.7283 116.487 30.2697 118.033 30.2919C119.607 30.3146 120.742 30.1575 121.441 29.8209C122.139 29.4575 122.493 28.9826 122.501 28.396C122.51 27.7827 122.133 27.1372 121.369 26.4595C120.606 25.7551 119.761 25.1296 118.836 24.5829C117.937 24.0366 117.106 23.3712 116.344 22.5869C115.582 21.8025 115.207 21.0103 115.218 20.2104C115.238 18.7972 116.366 17.3466 118.601 15.8586C120.863 14.3443 122.727 13.5977 124.194 13.6188ZM141.765 20.672C141.778 19.7655 141.644 18.9101 141.362 18.106C141.081 17.2752 140.663 16.6691 140.108 16.2878C138.261 16.7679 136.654 18.1717 135.287 20.4989C133.947 22.7999 133.263 24.9769 133.233 27.0301C133.204 29.0832 133.692 30.3703 134.698 30.8915C136.623 30.5458 138.268 29.2627 139.634 27.0421C141.026 24.7952 141.737 22.6718 141.765 20.672ZM131.241 20.8808C132.204 18.8144 133.442 17.1254 134.955 15.8136C136.494 14.4756 138.05 13.8179 139.623 13.8405C141.223 13.8635 142.547 14.5626 143.594 15.9378C144.641 17.2864 145.151 18.9339 145.123 20.8803C145.095 22.8001 144.6 24.7665 143.638 26.7796C142.676 28.766 141.359 30.4139 139.686 31.7233C138.041 33.0065 136.299 33.6348 134.459 33.6084C133.099 33.5888 131.975 32.9459 131.086 31.6797C130.198 30.4135 129.767 28.8204 129.795 26.9006C129.823 24.9542 130.305 22.9476 131.241 20.8808ZM162.05 15.283C162.163 14.8579 162.274 14.5662 162.383 14.4077C162.492 14.2493 162.719 14.1725 163.066 14.1775C163.439 14.1829 163.874 14.5358 164.371 15.2364C164.894 15.9373 165.151 16.6077 165.142 17.2477C165.137 17.5943 164.521 19.639 163.294 23.3817C162.066 27.1245 161.117 30.0978 160.445 32.3017C160.109 33.417 159.648 33.9704 159.061 33.962C158.715 33.957 158.423 33.8062 158.188 33.5094C157.952 33.2126 157.84 32.6776 157.851 31.9044C157.862 31.1311 158.189 29.7357 158.831 27.718C157.685 29.5151 156.45 30.9908 155.127 32.1453C153.804 33.2997 152.595 33.8691 151.502 33.8533C150.435 33.838 149.43 33.3168 148.484 32.2898C147.539 31.2628 147.074 30.216 147.089 29.1494C147.126 26.6164 147.904 23.4672 149.425 19.702C150.973 15.9106 152.24 14.0219 153.227 14.0361C153.707 14.043 154.117 14.2756 154.457 14.7338C154.824 15.1658 155.004 15.6618 154.996 16.2217C154.992 16.4617 154.62 17.3231 153.879 18.8059C153.138 20.2621 152.393 21.9849 151.644 23.9744C150.896 25.9371 150.511 27.6651 150.489 29.1583C150.483 29.5849 150.611 29.9468 150.874 30.2439C151.137 30.5144 151.455 30.6523 151.828 30.6577C152.841 30.6723 154.054 29.7963 155.466 28.0297C156.905 26.2635 158.215 24.2022 159.395 21.8456C160.576 19.4889 161.461 17.3014 162.05 15.283ZM195.197 21.4401C195.21 20.5335 195.076 19.6782 194.794 18.874C194.513 18.0432 194.095 17.4372 193.54 17.0558C191.693 17.536 190.086 18.9397 188.719 21.267C187.379 23.5679 186.695 25.745 186.665 27.7981C186.636 29.8512 187.124 31.1384 188.13 31.6596C190.055 31.3139 191.7 30.0307 193.066 27.8101C194.458 25.5632 195.169 23.4399 195.197 21.4401ZM184.673 21.6488C185.636 19.5825 186.874 17.8934 188.387 16.5817C189.926 15.2437 191.482 14.586 193.055 14.6086C194.655 14.6316 195.979 15.3307 197.026 16.7059C198.073 18.0544 198.583 19.7019 198.555 21.6484C198.527 23.5682 198.032 25.5346 197.07 27.5476C196.108 29.534 194.791 31.1819 193.118 32.4913C191.473 33.7745 189.731 34.4029 187.891 34.3764C186.531 34.3569 185.407 33.714 184.518 32.4477C183.63 31.1815 183.199 29.5885 183.227 27.6687C183.255 25.7222 183.737 23.7156 184.673 21.6488ZM222.313 6.62828C224.819 6.66431 227.476 7.3559 230.284 8.70306C233.118 10.0506 235.545 11.899 237.565 14.2483C239.585 16.5709 240.577 18.9721 240.542 21.4518C240.518 23.0783 239.357 24.9818 237.059 27.1623C234.788 29.3166 232.161 31.159 229.179 32.6897C226.197 34.1936 223.733 34.9316 221.786 34.9036C221.28 34.8964 220.699 34.4613 220.045 33.5985C219.418 32.7094 219.11 31.8249 219.123 30.9449C219.136 30.0384 219.956 26.8232 221.582 21.2993C223.208 15.7754 224.101 12.1345 224.259 10.3766C223.411 10.0177 222.737 9.55469 222.239 8.98746C221.74 8.42024 221.495 7.88332 221.502 7.3767C221.509 6.87009 221.78 6.62062 222.313 6.62828ZM236.868 20.959C236.892 19.3058 235.931 17.5051 233.986 15.557C232.041 13.5821 229.768 12.1493 227.167 11.2585C227.293 11.7404 227.352 12.3146 227.342 12.9812C227.333 13.6212 227.075 14.8309 226.57 16.6105C226.091 18.3905 225.208 21.3647 223.921 25.5334C223.389 27.2859 222.948 29.2131 222.598 31.3149C224.441 31.1014 226.506 30.331 228.792 29.0037C231.105 27.6502 233.019 26.1975 234.535 24.6458C236.078 23.0945 236.855 21.8655 236.868 20.959ZM253.81 15.4819C255.01 15.4991 256.108 16.1283 257.103 17.3694C258.099 18.5839 258.59 19.6844 258.576 20.6709C258.562 21.6308 258.215 22.6126 257.534 23.6163C257.848 24.0208 258.003 24.3697 257.999 24.663C257.988 25.4096 257.796 26.687 257.423 28.4952C257.077 30.3037 256.86 31.4874 256.772 32.0462C256.711 32.6054 256.651 33.0579 256.593 33.4037C256.535 33.7229 256.464 34.042 256.379 34.3608C256.263 35.0258 256.018 35.3557 255.645 35.3503C255.165 35.3434 254.771 34.9244 254.463 34.0932C254.182 33.2357 254.024 32.14 253.99 30.8061C251.573 33.785 249.352 35.2599 247.326 35.2307C246.099 35.2131 244.893 34.6757 243.708 33.6186C242.55 32.5352 241.98 31.4335 241.996 30.3136C242.019 28.7138 242.634 26.7491 243.841 24.4195C245.048 22.0633 246.598 19.9787 248.491 18.1657C250.384 16.3527 252.157 15.4581 253.81 15.4819ZM255.549 22.5476C255.584 20.0679 255.109 18.8209 254.122 18.8067C253.082 18.7918 251.858 19.5209 250.45 20.9942C249.043 22.4408 247.846 24.0904 246.859 25.9431C245.872 27.7958 245.371 29.2687 245.355 30.3619C245.349 30.8152 245.53 31.1912 245.899 31.4899C246.269 31.7619 246.707 31.9015 247.213 31.9088C248.466 31.9268 249.892 31.1072 251.489 29.45C253.087 27.7661 254.21 25.7154 254.858 23.2978C254.944 22.899 255.174 22.6622 255.548 22.5876L255.549 22.5476ZM265.654 28.5335C268.276 24.2241 270.402 21.0276 272.032 18.9442C273.689 16.8344 275.025 15.7868 276.038 15.8014C277.078 15.8164 278.043 16.377 278.934 17.4832C279.851 18.5898 280.301 19.7564 280.284 20.983C280.256 22.9028 279.782 25.2429 278.863 28.0033C277.189 33.0997 275.713 35.6388 274.433 35.6204C273.846 35.612 273.559 35.2078 273.57 34.4079C273.578 33.8479 273.874 32.7187 274.459 31.0203C275.07 29.2956 275.628 27.6101 276.132 25.9638C276.662 24.2913 276.934 23.0417 276.946 22.2151C276.958 21.3619 276.834 20.7334 276.573 20.3296C276.339 19.9262 276.088 19.7225 275.821 19.7187C275.581 19.7153 275.327 19.7916 275.058 19.9478C274.789 20.1039 274.479 20.3661 274.127 20.7344C273.801 21.1031 273.489 21.472 273.191 21.8411C272.892 22.1835 272.512 22.6848 272.049 23.3449C271.613 24.0053 271.245 24.5734 270.944 25.0492C270.645 25.4982 270.208 26.1587 269.636 27.0306C269.063 27.9024 268.627 28.5629 268.327 29.0119C268.027 29.461 267.632 30.0687 267.141 30.8351C266.65 31.6014 266.254 32.1958 265.955 32.6182C265.682 33.041 265.369 33.5032 265.015 34.0049C264.334 34.9818 263.794 35.4675 263.394 35.4617C263.021 35.4563 262.585 35.1567 262.087 34.5628C261.589 33.9423 261.343 33.4054 261.35 32.9521C261.352 32.8188 261.45 32.4601 261.645 31.8762C262.174 30.337 262.761 28.4386 263.407 26.1809C264.054 23.8967 264.424 21.3017 264.519 18.3961C264.627 16.4508 264.921 15.4816 265.401 15.4885C265.988 15.4969 266.57 15.812 267.148 16.4337C267.726 17.0554 268.009 17.7395 267.998 18.4861C267.988 19.2061 267.741 20.616 267.257 22.7159C266.801 24.7896 266.266 26.7288 265.654 28.5335ZM288.446 10.2992C288.454 9.7659 288.675 9.26236 289.108 8.78854C289.542 8.31472 289.972 8.08088 290.398 8.08701C290.852 8.09353 291.377 8.6478 291.975 9.74984C292.572 10.8252 292.866 11.7229 292.856 12.4428C292.852 12.7094 292.729 12.9477 292.486 13.1575C292.243 13.3674 291.988 13.4704 291.721 13.4666C291.081 13.4574 290.367 13.0604 289.578 12.2757C288.816 11.4913 288.439 10.8325 288.446 10.2992ZM288.165 15.9757C288.671 15.983 289.147 16.2965 289.591 16.9163C290.036 17.5361 290.254 18.1393 290.245 18.7259C290.237 19.3125 289.825 21.0668 289.01 23.9887C288.195 26.8839 287.174 30.1363 285.949 33.7457C285.477 35.0724 284.894 35.7308 284.2 35.7208C283.827 35.7154 283.509 35.5642 283.247 35.267C282.985 34.9432 282.856 34.5947 282.862 34.2214C282.868 33.8214 282.97 33.2095 283.168 32.3856C283.394 31.5354 283.703 30.4198 284.096 29.0386C284.517 27.6312 284.84 26.489 285.066 25.6122C285.318 24.7357 285.573 23.7526 285.828 22.6628C286.084 21.5464 286.284 20.6558 286.427 19.9912C286.597 19.3002 286.78 18.6094 286.977 17.9188C287.369 16.6177 287.765 15.97 288.165 15.9757ZM308.638 22.9107C308.618 24.3239 307.828 25.4727 306.269 26.357C304.736 27.2151 302.997 27.6301 301.05 27.6021C299.13 27.5745 297.387 27.3361 295.82 26.8869C295.43 28.0547 295.228 29.1053 295.214 30.0385C295.201 30.9451 295.471 31.6557 296.024 32.1704C296.603 32.6854 297.546 32.9523 298.853 32.9711C300.186 32.9903 301.549 32.7832 302.942 32.3498C304.362 31.8902 305.139 31.6613 305.272 31.6632C305.965 31.6732 306.308 31.9448 306.301 32.4781C306.29 33.198 305.466 33.9729 303.827 34.8028C302.189 35.606 300.596 35.9965 299.05 35.9742C296.97 35.9443 295.285 35.3067 293.997 34.0614C292.708 32.7894 292.077 31.2069 292.105 29.3137C292.132 27.4206 292.667 25.4547 293.71 23.4162C294.753 21.351 296.084 19.6233 297.704 18.2331C299.325 16.8429 300.921 16.1591 302.494 16.1817C304.068 16.2043 305.483 16.9714 306.742 18.483C308.027 19.9949 308.659 21.4709 308.638 22.9107ZM302.649 19.3443C301.662 19.3301 300.628 19.8353 299.547 20.8598C298.466 21.8577 297.541 23.1112 296.773 24.6203C297.836 24.8756 299.047 25.0131 300.407 25.0326C301.767 25.0522 302.956 24.8559 303.976 24.4438C304.996 24.0051 305.511 23.4258 305.521 22.7059C305.531 21.986 305.209 21.2479 304.553 20.4917C303.923 19.7359 303.289 19.3534 302.649 19.3443ZM318.773 8.57489C318.701 13.5877 317.568 20.0788 315.373 28.048C313.962 33.4683 312.989 36.1746 312.456 36.1669C312.083 36.1616 311.647 35.862 311.149 35.2681C310.677 34.6746 310.444 34.2178 310.448 33.8979C310.453 33.5779 310.863 31.9303 311.68 28.955C312.496 25.9798 313.322 22.3246 314.157 17.9895C314.994 13.6278 315.437 9.70038 315.487 6.20741C315.492 5.83412 315.549 5.56824 315.658 5.40979C315.767 5.25134 315.995 5.17461 316.342 5.17959C316.688 5.18458 317.176 5.57829 317.805 6.36074C318.461 7.11692 318.784 7.85496 318.773 8.57489Z" fill="url(#paint0_linear_512_1099)"/>
<defs>
<linearGradient id="paint0_linear_512_1099" x1="-1.14805" y1="21.2581" x2="319.819" y2="25.8733" gradientUnits="userSpaceOnUse">
<stop stop-color="#9955E8"/>
<stop offset="1" stop-color="#7BFFAF"/>
</linearGradient>
</defs>
</svg>
