<svg width="69" height="104" viewBox="0 0 69 104" fill="none" xmlns="http://www.w3.org/2000/svg">
<g clip-path="url(#clip0_512_1705)">
<path d="M44.1525 13.8078C42.2615 20.5845 40.655 27.1911 37.2663 33.3676C35.523 36.5451 33.9818 39.7306 31.5095 42.4268C27.9847 46.2708 22.6702 50.6406 17.1578 50.87C16.3523 50.9035 14.625 50.6088 16.4368 50.622C18.4026 50.6364 20.5578 50.8426 22.4794 51.2662C25.2675 51.881 27.2129 54.4036 28.4596 56.801C30.6889 61.0877 30.993 65.9536 30.9017 70.7216C30.8102 75.4914 29.8905 80.098 29.355 84.8209C29.1618 86.5247 28.9448 88.2271 28.6713 89.9201C28.6499 90.0523 28.3239 91.9421 28.2068 91.5003C27.5532 89.0351 28.3445 85.7086 28.7318 83.2758C29.3514 79.383 30.5621 75.6412 31.9769 71.9696C32.9639 69.4082 33.9839 66.6027 35.6867 64.3999C37.7162 61.7744 40.9353 60.6147 44.0226 59.3103C44.0226 59.3103 52.0709 58.2904 51.2265 56.6288C49.2794 52.7975 41.1501 48.0381 40.4775 43.7276C39.7098 38.8068 40.7042 33.3819 41.8216 28.5904C43.0069 23.5085 44.0091 18.3567 45.7095 13.424" stroke="#7DFFAF" stroke-width="1.5" stroke-linecap="round"/>
</g>
<defs>
<clipPath id="clip0_512_1705">
<rect width="45" height="95" fill="white" transform="translate(24.5879) rotate(15)"/>
</clipPath>
</defs>
</svg>
