<svg width="160" height="160" viewBox="0 0 160 160" fill="none" xmlns="http://www.w3.org/2000/svg">
<g clip-path="url(#clip0_1207_137)">
<mask id="mask0_1207_137" style="mask-type:alpha" maskUnits="userSpaceOnUse" x="0" y="0" width="160" height="160">
<path d="M79.7377 159.475C123.776 159.475 159.475 123.776 159.475 79.7377C159.475 35.6998 123.776 0 79.7377 0C35.6998 0 0 35.6998 0 79.7377C0 123.776 35.6998 159.475 79.7377 159.475Z" fill="#D9D9D9"/>
</mask>
<g mask="url(#mask0_1207_137)">
<path d="M137.383 147.769C136.39 141.328 131.997 130.491 129.332 127.575C126.402 124.399 125.2 123.397 115.423 120.656C114.9 118.48 112.965 112.996 110.664 110.69C107.161 106.294 97.5926 105.293 94.7168 105.816C94.7168 105.816 79.2396 101.29 61.4096 101.29C55.7624 102.334 49.2265 104.467 45.671 108.949C43.2657 111.909 45.9847 112.866 44.7821 115.564C44.4684 116.26 37.148 119.742 34.1677 121.831C32.8082 122.745 31.2919 125.051 30.2461 128.054C28.1547 134.191 30.403 142.677 27.7886 150.075C22.7689 164.35 12.5729 168.614 12.5729 168.614H147.684C147.579 168.571 139.527 161.347 137.383 147.769Z" fill="url(#paint0_linear_1207_137)"/>
<path d="M136.599 147.856C135.553 142.154 133.462 136.497 130.795 131.188C129.488 128.62 127.501 126.139 124.73 124.617C123.318 123.877 121.75 123.311 120.129 122.745C118.508 122.223 116.834 121.744 115.214 121.265C114.952 121.178 114.743 121.004 114.691 120.787C114.482 119.916 114.22 119.089 113.906 118.219C112.547 114.694 111.083 110.777 107.109 108.732C104.076 107.208 100.468 106.469 96.9652 106.338C96.2855 106.338 95.5534 106.338 94.9259 106.425H94.7168C94.6645 106.425 94.56 106.425 94.5077 106.382C91.9979 105.381 89.2266 104.771 86.5077 104.162C78.3508 102.595 69.828 101.943 61.4619 101.899C56.3378 102.9 49.1743 105.25 46.0371 109.602C45.5142 110.298 45.2528 110.995 45.3573 111.778C45.4619 112.648 45.828 113.606 45.5666 114.52C45.4619 114.911 45.3573 115.347 45.1482 115.695C44.7299 116.173 44.0501 116.478 43.5273 116.783C40.8084 118.262 38.0371 119.568 35.4227 121.091C34.5338 121.613 33.6973 122.092 33.0698 122.832C31.2397 125.008 30.1417 127.619 29.671 130.23C28.8345 135.54 29.671 140.935 28.8345 146.245C27.8933 151.555 25.4358 156.691 21.9848 161.216C19.5796 164.262 16.6515 167.091 12.9391 169.05L12.5731 167.831H147.684L147.109 168.919C145.541 167.439 144.285 165.829 143.135 164.132C139.579 159.171 137.488 153.557 136.599 147.856ZM138.167 147.681C138.743 151.381 139.841 155.036 141.514 158.518C143.188 161.956 145.279 165.307 148.207 168.135C148.625 168.527 148.26 169.267 147.632 169.223H12.5208C12.1025 169.223 11.7365 168.919 11.7365 168.571C11.7365 168.31 11.8933 168.092 12.1548 168.005C12.9913 167.614 13.828 167.047 14.6122 166.481C21.4619 161.347 25.7496 153.731 27.1613 146.159C28.3638 139.065 26.1155 131.406 29.9326 124.66C30.8214 123.093 31.9194 121.439 33.6973 120.438C36.9391 118.436 40.4946 116.957 43.6842 114.998C43.7364 114.998 43.7364 114.955 43.7364 114.955C43.6842 114.998 43.6319 115.085 43.6319 115.129C43.9456 114.52 44.0501 113.997 43.9456 113.301C43.7887 112.431 43.5273 111.256 43.8933 110.342C44.0501 109.82 44.3638 109.341 44.6776 108.949C48.4424 104.249 55.0829 102.16 61.4096 100.985C63.1875 101.029 65.0175 100.768 66.7952 100.768C69.2528 100.768 71.7626 101.072 74.2201 101.333C81.2789 102.247 88.0763 103.814 95.0306 105.076L94.56 105.033C96.1808 104.771 97.6973 104.902 99.2659 105.076C109.305 106.338 112.704 109.994 115.423 117.784C115.736 118.654 115.998 119.524 116.259 120.438L115.736 119.916C120.756 121.396 126.404 122.745 129.593 126.618C130.743 127.793 131.579 129.185 132.311 130.579C134.978 136.149 137.069 141.763 138.167 147.681Z" fill="black"/>
<path d="M54.9784 119.133C58.8477 126.009 64.8609 131.84 72.0242 136.453C72.2856 136.628 72.0242 136.976 71.7105 136.846C65.3314 134.321 59.9458 130.012 56.7563 124.79C55.7105 123.05 54.8216 121.178 54.5079 119.22C54.4033 119.002 54.8216 118.915 54.9784 119.133Z" fill="black"/>
<path d="M116.207 120.569C116.364 127.836 112.809 135.279 106.011 139.979C105.854 140.11 105.645 140.065 105.488 139.935C105.331 139.804 105.384 139.631 105.541 139.5C107.057 138.282 108.573 137.019 109.724 135.54C112.129 132.667 113.593 129.273 114.273 125.835C114.586 124.138 114.796 122.31 114.639 120.612C114.586 119.786 116.155 119.698 116.207 120.569Z" fill="black"/>
<path d="M85.4096 137.846C84.2071 141.371 83.2136 145.201 83.7888 148.857C83.9456 149.684 82.4293 149.9 82.2201 149.03C81.9587 147.029 82.2724 145.071 82.6907 143.156C83.1614 141.241 83.7365 139.413 84.5208 137.585C84.73 137.15 85.6189 137.367 85.4096 137.846Z" fill="black"/>
<path d="M102.037 137.194C103.763 140.283 104.965 143.504 105.906 146.768C106.011 147.115 105.75 147.463 105.331 147.551C104.913 147.638 104.495 147.42 104.39 147.072C103.867 144.635 103.187 142.198 102.246 139.804C101.933 139.022 101.619 138.238 101.253 137.455C101.044 137.062 101.776 136.758 102.037 137.194Z" fill="black"/>
<path d="M45.8801 115.39C47.8148 124.181 55.2397 131.623 64.1808 136.367C67.2136 137.977 70.4554 139.369 73.8018 140.501C74.011 140.588 74.1155 140.762 74.011 140.935C73.9587 141.11 73.6973 141.198 73.5403 141.11C70.0894 140.065 66.7429 138.759 63.6057 137.194C57.2266 134.06 51.6318 129.708 47.8671 124.399C45.9325 121.657 44.4161 118.785 43.6841 115.651C43.5796 115.129 43.9978 114.65 44.6253 114.563C45.2005 114.433 45.828 114.824 45.8801 115.39Z" fill="black"/>
<path d="M82.2722 149.814C80.808 149.684 79.7624 148.551 80.0761 147.333L80.6512 145.027C80.8603 144.113 81.9061 143.46 83.0042 143.59C84.1022 143.678 84.9911 144.462 84.9911 145.418V147.769C85.0434 148.987 83.7885 149.945 82.2722 149.814Z" fill="black"/>
<path d="M106.377 148.203C104.965 148.639 103.449 147.942 103.083 146.724L102.403 144.417C102.142 143.504 102.717 142.59 103.815 142.241C104.861 141.937 106.063 142.329 106.534 143.156L107.789 145.287C108.416 146.463 107.789 147.812 106.377 148.203Z" fill="black"/>
<path d="M38.2463 168.571C38.2463 168.571 37.7756 158.867 36.207 156.255" stroke="black" stroke-width="5.1257" stroke-miterlimit="10" stroke-linecap="round" stroke-linejoin="round"/>
<path d="M130.534 146.899C130.534 146.899 133.462 160.564 132.311 168.571" stroke="black" stroke-width="5.1257" stroke-miterlimit="10" stroke-linecap="round" stroke-linejoin="round"/>
<path d="M62.2461 113.823C61.514 112.083 61.2003 110.298 61.3572 108.471C61.3572 108.296 61.514 108.209 61.7231 108.209C61.8801 108.209 62.037 108.34 62.037 108.471C62.1938 110.124 62.7689 111.822 63.7101 113.258C64.1807 114.128 62.6121 114.694 62.2461 113.823Z" fill="black"/>
<path d="M97.5925 116.13C96.1284 113.388 92.5205 111.996 89.331 111.038C87.3441 110.516 85.148 110.124 83.0565 109.863C77.9846 109.21 70.8212 108.209 65.7493 107.774C65.697 107.774 65.697 107.687 65.7493 107.687C67.2134 107.557 68.6774 107.557 70.1414 107.557C74.5337 107.644 78.9258 108.035 83.2656 108.601C87.6056 109.167 92.2591 110.255 95.5533 112.866C96.599 113.78 97.5402 114.824 97.8016 116.086C97.8539 116.217 97.6447 116.261 97.5925 116.13Z" fill="black"/>
<path d="M95.686 128.418C94.5879 133.804 87.4768 137.046 75.503 132.183C63.0586 127.163 57.673 115.19 56.3135 111.634C63.686 97.8302 58.5618 88.2616 58.5618 88.2616C75.5553 86.7974 90.4049 106.667 90.4049 106.667L92.7056 116.497C92.9148 117.333 93.333 118.065 93.9605 118.588C95.0586 120.523 96.3658 124.967 95.686 128.418Z" fill="white"/>
<path d="M56.0522 111.791C57.0457 110.275 57.6731 108.497 58.0914 106.771C58.8757 103.164 59.1372 99.5035 59.1894 95.8433V94.4838C59.0326 93.1243 58.562 91.7126 58.0391 90.4577C57.3594 88.7845 59.8169 87.7387 60.6012 89.4119C60.7058 89.621 60.7058 89.9871 60.7058 90.1963C60.8626 97.3073 61.1764 106.458 56.6796 112.366C56.3659 112.68 55.7385 112.209 56.0522 111.791Z" fill="black"/>
<path d="M90.98 106.562C91.7644 107.033 92.0258 107.66 92.1304 108.288C92.4441 109.543 92.3395 110.902 92.6532 112.209C92.9146 113.464 93.699 114.667 93.9081 115.974C94.1697 117.333 94.9539 120.209 95.2676 121.621C95.3722 121.935 95.163 122.301 94.7971 122.353C94.5879 122.405 94.4311 122.353 94.2742 122.249C93.5944 121.673 93.2807 121.098 92.8625 120.366C92.1827 119.111 91.7121 117.961 91.2938 116.549C90.9278 115.294 91.0846 113.935 90.7709 112.628C90.5095 111.373 89.7774 110.17 89.516 108.863C89.3592 108.235 89.3069 107.556 89.7774 106.771C90.0911 106.458 90.6141 106.353 90.98 106.562Z" fill="black"/>
<path d="M94.7449 120.366C84.7579 119.843 76.6011 116.706 68.6534 102.536C75.3462 108.445 83.2416 110.693 91.5554 111.739L92.6534 116.549C92.8626 117.386 94.1174 119.843 94.7449 120.366Z" fill="black"/>
<path d="M94.3268 118.431C96.1046 121.778 97.1504 125.961 96.0523 129.674C95.2158 132.288 92.8105 134.223 90.1961 134.954C84.1307 136.575 77.1242 134.014 71.7386 131.137C65.0981 127.425 60.183 121.203 57.0458 114.405C56.8366 113.882 57.5686 113.464 57.8824 113.987C58.9805 116.183 60.2353 118.327 61.647 120.262C63.0589 122.248 64.6798 124.079 66.5098 125.7C71.8432 130.51 79.0589 133.49 86.2746 133.49C93.6993 133.281 96.523 129.36 94.7974 122.144C94.536 120.993 94.1177 119.791 93.5425 118.797C93.2288 118.379 94.0131 117.909 94.3268 118.431Z" fill="black"/>
<path d="M114.562 55.6341C115.503 60.0262 115.974 63.5818 113.412 75.2942C110.902 86.9544 117.019 89.3595 102.536 108.026C96.6273 115.66 82.3005 113.516 70.6927 105.621C66.7712 102.954 65.098 96.1046 62.1698 91.2419C59.8692 87.4249 58.8234 91.3988 55.7908 88.1046C51.66 83.6079 46.6927 74.5622 49.1503 58.5622C53.124 32.6276 73.6731 29.5949 88.8887 32.4707C104.209 35.3988 112.052 44.0786 114.562 55.6341Z" fill="white"/>
<path d="M58.4051 92.7582C57.2025 90.719 55.6338 88.9412 54.1698 87.0589C52.7579 85.1242 51.6077 82.9805 50.6665 80.7844C44.4442 65.5165 46.8495 44.0262 62.1174 35.0328C68.4442 31.3726 76.0783 30.4837 83.1893 31.0589C98.4051 32.1569 112.366 39.1635 115.66 55.2681C117.438 62.3791 115.033 69.6995 113.673 76.6537C113.046 80.1046 113.568 83.6602 113.516 87.2158C113.464 90.8237 112.47 94.4314 111.111 97.7779C110.274 100.079 108.81 102.118 107.294 104C104.784 107.033 102.274 110.118 99.0848 112.471C98.3528 112.994 97.0456 113.255 96.1567 113.36C93.6991 113.726 91.2939 113.83 88.8365 113.673C79.2155 113.255 68.9149 108.601 65.0456 99.2942C64.8888 98.9282 65.4116 98.6667 65.6207 98.9805C70.6404 106.928 79.843 110.85 88.9933 111.373C91.8168 111.53 94.6926 111.477 97.4639 110.902C98.8233 110.222 100.026 109.02 101.176 107.922C104 105.098 106.876 102.065 108.915 98.6144C111.372 93.9609 112.732 88.889 112.314 83.6079C112.209 81.2549 112.157 78.7974 112.627 76.4445C113.046 74.0916 113.568 71.8432 113.882 69.4379C114.196 67.1374 114.353 64.7844 114.353 62.4837C114.091 55.7386 111.895 48.7844 107.608 43.5556C98.1437 31.7909 75.7646 28.706 63.1632 36.7583C55.2155 41.6733 51.503 50.8758 50.3005 59.817C48.4704 70.536 48.9933 81.0981 57.5162 88.889L60.026 91.5033C61.0195 92.6537 59.2416 94.0132 58.4051 92.7582Z" fill="black"/>
<path d="M64.5749 76.1307C64.5749 76.1307 62.954 68.2876 55.32 69.2288C48.7317 70.0653 46.4311 85.8562 61.3854 90.2484" fill="white"/>
<path d="M60.7058 83.3988C59.5031 82.719 58.6666 81.5688 58.6143 80.1569C58.6666 79.1112 58.8235 77.9086 58.562 76.8628C58.4052 75.8693 57.3594 75.6079 56.5751 75.6602C55.7385 75.8171 55.2156 76.8628 55.0587 77.6995C55.0587 77.7518 55.0064 77.9086 55.0064 77.9609C54.9542 78.2223 54.5359 78.2223 54.4313 77.9609C53.7515 75.9216 55.2679 73.6732 57.464 73.9348C60.5489 74.1439 60.9673 77.3857 60.3921 79.8432C60.0784 80.889 60.4966 81.8302 61.0719 82.719L61.1764 82.876C61.4378 83.1897 61.0196 83.6079 60.7058 83.3988Z" fill="black"/>
<path d="M102.536 70.5884C103.32 74.3007 104.784 77.7517 106.614 80.9935C108.235 84.9674 104.052 88.7321 100.34 88.5752C99.9213 88.5752 99.869 88.0001 100.235 87.8956C102.588 87.1635 104.732 85.5949 105.098 83.1896C105.255 82.4577 105.045 81.8302 104.679 81.2028C102.954 77.9609 101.908 74.2484 102.17 70.5884C102.17 70.3268 102.536 70.3268 102.536 70.5884Z" fill="black"/>
<path d="M64.3136 76.1832C63.111 73.0981 60.4966 70.17 56.9934 70.2223C56.6796 70.17 56.1568 70.2746 55.8431 70.2746C54.9541 70.3269 54.2222 70.6406 53.5424 71.2681C50.1959 74.6144 50.7712 80.523 53.4901 84.2353C54.4313 85.5425 55.6338 86.6929 56.9934 87.6341C58.3529 88.5753 59.8692 89.3073 61.4901 89.9348C61.8561 90.0393 61.6992 90.6144 61.3333 90.5622C57.8299 89.8302 54.4836 88.1046 52.1829 85.2288C48.6273 80.9413 47.8953 73.7779 52.1306 69.5948C53.0718 68.7583 54.379 68.1308 55.6862 68.1308C56.1045 68.1308 56.7319 68.0262 57.1503 68.1308C59.3463 68.2353 61.4378 69.3334 62.7973 71.059C63.9999 72.523 64.6796 74.3007 64.8887 76.0785C64.8887 76.3923 64.4182 76.4969 64.3136 76.1832Z" fill="black"/>
<path d="M98.5622 93.804C95.2157 96.9936 88.8889 94.4315 87.2157 90.5622C87.0066 90.0916 87.5294 89.6733 87.9478 89.8824C88.8366 90.3531 89.621 90.8236 90.4575 91.1896C92.8627 92.2877 95.3726 93.1766 98.0392 92.9152C98.5622 92.8106 98.9281 93.438 98.5622 93.804Z" fill="black"/>
<path d="M83.0327 75.9216C81.7778 75.8693 80.8367 74.8235 80.9412 73.5686L80.9935 72.1046C81.0458 70.8497 82.0916 69.9086 83.3464 70.0131C84.6013 70.0654 85.5425 71.1111 85.4379 72.366L85.3857 73.8302C85.3334 75.0327 84.2876 75.9739 83.0327 75.9216Z" fill="black"/>
<path d="M105.046 76.7061C103.895 76.6538 103.006 75.6603 103.059 74.51L103.111 73.1505C103.163 72.0002 104.157 71.1114 105.307 71.1636C106.457 71.2159 107.346 72.2093 107.294 73.3596L107.242 74.7191C107.189 75.8695 106.196 76.7584 105.046 76.7061Z" fill="black"/>
<path d="M87.7385 73.0981C86.013 71.9478 84.1306 71.1635 82.0392 71.5818C81.3594 71.6863 80.6797 71.8955 80.2614 72.3661C80.1046 72.5753 79.7385 72.523 79.7385 72.2093C79.7908 71.1635 80.6797 70.4837 81.5163 70.0654C83.1372 69.2288 85.3855 69.3857 86.8497 70.4837C87.3725 70.7974 89.1503 72.7321 88.2092 73.1504C87.9999 73.2549 87.8954 73.2027 87.7385 73.0981Z" fill="black"/>
<path d="M102.693 73.3595C102.693 71.1635 105.412 70.3791 107.085 71.1635C108.026 71.5818 108.706 72.4184 108.967 73.4118C109.072 73.7256 108.601 73.987 108.392 73.7256C107.503 72.6798 105.987 72.1569 104.784 72.7844C104.418 72.9935 104.366 73.1504 104.261 73.3595C104.261 74.4053 102.745 74.353 102.693 73.3595Z" fill="black"/>
<path d="M90.2484 64.4707C91.3464 64.8367 92.4445 63.8432 92.2352 62.6406C92.1307 62.0132 91.8692 61.3858 91.3464 60.9151C89.7778 59.5033 83.2941 58.2484 79.3725 60.0786C75.9215 61.7517 85.2287 62.7974 90.2484 64.4707Z" fill="black"/>
<path d="M105.883 65.3072C104.994 65.6209 104.052 64.6798 104.209 63.5818C104.262 63.0065 104.471 62.4314 104.889 62.0132C106.144 60.7582 110.432 59.7648 113.151 61.6995C115.503 63.3203 109.961 63.7909 105.883 65.3072Z" fill="black"/>
<path d="M119.686 44.6535C116.967 21.4379 93.9085 13.5947 98.3529 29.0719C98.3529 29.0719 92.2876 19.3463 78.6406 18.8235C66.9282 18.4052 74.0392 26.7189 74.0392 26.7189C74.0392 26.7189 64.9413 21.4902 49.5164 29.3333C36.0785 36.183 48.5229 42.1961 48.5229 42.1961C48.5229 42.1961 38.3792 47.5817 38.2222 59.1895C38.1699 62.2221 40.6798 66.8758 46.6406 65.3595C45.1243 76.9149 52.1831 86.3791 55.4249 90.2484C59.6078 95.2679 59.9739 99.0849 59.9739 99.0849C62.1177 97.8823 59.6078 92.4967 59.6601 89.6732C46.5883 84.6535 48.9412 70.0653 55.3203 69.2287C62.0131 68.3921 64.1046 74.3529 64.4706 75.817C65.5687 74.5098 65.8824 69.4379 66.5099 64.0523C68.4445 63.4249 70.1699 62.7451 71.5817 61.8561C77.1243 58.5621 79.7387 52.8628 85.3857 49.5163C95.268 43.6077 97.8301 56.9412 103.111 52.0261C109.229 46.3791 113.673 50.8758 115.033 57.83C115.556 60.3398 118.745 60.1307 119.216 57.6209C119.948 53.9607 120.261 49.5686 119.686 44.6535Z" fill="black"/>
<path d="M150.693 44.0784C182.431 105.203 126.64 174.17 60.1307 157.333C30.2744 149.909 6.27444 124.026 1.30712 93.6471C-4.33993 63.4249 9.30712 30.9543 34.8235 13.8563C69.8039 -10.196 118.274 -2.19603 143.321 32.2092C143.477 32.3661 143.425 32.6275 143.216 32.7844C143.058 32.9412 142.797 32.8889 142.64 32.6798C139.189 28.2354 135.268 24.2092 130.981 20.6014C123.921 14.5882 115.66 9.88241 106.928 6.69286C62.4836 -9.4117 13.6993 17.3596 3.97379 63.8433C-7.0066 115.922 37.2809 163.87 90.0914 156.707C130.823 151.582 161.098 113.987 157.751 73.0981C157.019 63.2157 154.405 53.438 150.065 44.4445C149.961 44.2877 150.065 44.0784 150.223 43.974C150.379 43.8693 150.588 43.9216 150.693 44.0784Z" fill="white"/>
</g>
</g>
<defs>
<linearGradient id="paint0_linear_1207_137" x1="12.5729" y1="134.952" x2="147.684" y2="134.952" gradientUnits="userSpaceOnUse">
<stop stop-color="#9955E8"/>
<stop offset="1" stop-color="#7BFFAF"/>
</linearGradient>
<clipPath id="clip0_1207_137">
<rect width="160" height="160" fill="white"/>
</clipPath>
</defs>
</svg>
